<svg xmlns="http://www.w3.org/2000/svg" viewBox="0 0 512 512">
  <defs>
    <linearGradient id="grad" x1="0%" y1="0%" x2="100%" y2="100%">
      <stop offset="0%" style="stop-color:#206bc4;stop-opacity:1" />
      <stop offset="100%" style="stop-color:#4299e1;stop-opacity:1" />
    </linearGradient>
  </defs>
  
  <!-- Background -->
  <rect width="512" height="512" rx="64" fill="url(#grad)"/>
  
  <!-- Building icon -->
  <g fill="white">
    <!-- Main building -->
    <rect x="160" y="160" width="192" height="260" rx="8"/>
    
    <!-- Windows row 1 -->
    <rect x="180" y="180" width="32" height="40" rx="4" fill="#206bc4"/>
    <rect x="240" y="180" width="32" height="40" rx="4" fill="#206bc4"/>
    <rect x="300" y="180" width="32" height="40" rx="4" fill="#206bc4"/>
    
    <!-- Windows row 2 -->
    <rect x="180" y="240" width="32" height="40" rx="4" fill="#206bc4"/>
    <rect x="240" y="240" width="32" height="40" rx="4" fill="#206bc4"/>
    <rect x="300" y="240" width="32" height="40" rx="4" fill="#206bc4"/>
    
    <!-- Windows row 3 -->
    <rect x="180" y="300" width="32" height="40" rx="4" fill="#206bc4"/>
    <rect x="240" y="300" width="32" height="40" rx="4" fill="#206bc4"/>
    <rect x="300" y="300" width="32" height="40" rx="4" fill="#206bc4"/>
    
    <!-- Door -->
    <rect x="220" y="360" width="72" height="60" rx="4" fill="#1a4d80"/>
    
    <!-- Dollar sign -->
    <text x="256" y="130" text-anchor="middle" font-family="Arial, sans-serif" font-size="64" font-weight="bold">$</text>
  </g>
</svg>
